<svg width="277" height="285" viewBox="0 0 277 285" fill="none" xmlns="http://www.w3.org/2000/svg">
<g opacity="0.400065">
<path fill-rule="evenodd" clip-rule="evenodd" d="M20.7226 153.569C26.0505 134.988 45.6485 124.306 64.4947 129.71C83.3408 135.114 94.3001 154.559 88.9721 173.139C83.6442 191.72 64.0462 202.402 45.2 196.998C26.3539 191.594 15.3946 172.15 20.7226 153.569Z" fill="#231F20"/>
<path fill-rule="evenodd" clip-rule="evenodd" d="M42.0564 81.3168L79.9504 243.026L197.781 125.97L42.0564 81.3168Z" fill="#C5CEBD"/>
<path fill-rule="evenodd" clip-rule="evenodd" d="M199.269 125.737L41.6218 80.5327L79.3745 246.363L199.269 125.737ZM196.383 126.493L80.2404 243.343L43.6691 82.7027L196.383 126.493Z" fill="#231F20"/>
<path fill-rule="evenodd" clip-rule="evenodd" d="M64.879 127.949C45.7675 122.468 25.9542 133.089 20.6263 151.67C15.2984 170.251 26.4728 189.757 45.5844 195.237C64.696 200.717 84.5092 190.096 89.8371 171.516C95.1651 152.935 83.9906 133.429 64.879 127.949ZM45.9932 193.811C27.6914 188.563 16.9904 169.884 22.0926 152.09C27.1947 134.297 46.1685 124.126 64.4702 129.374C82.772 134.622 93.473 153.302 88.3709 171.095C83.2687 188.889 64.2949 199.059 45.9932 193.811Z" fill="#231F20"/>
<path d="M212.138 263.954L210.814 264.689L64.8244 1.31688L66.1489 0.582664L212.138 263.954Z" fill="#231F20"/>
<path fill-rule="evenodd" clip-rule="evenodd" d="M151.691 214.411C148.24 213.421 144.702 215.201 143.789 218.387C142.875 221.572 144.932 224.957 148.384 225.946C151.834 226.936 155.372 225.155 156.285 221.97C157.198 218.785 155.141 215.4 151.691 214.411ZM148.789 224.534C146.182 223.787 144.628 221.231 145.318 218.825C146.008 216.42 148.68 215.076 151.286 215.823C153.892 216.57 155.445 219.126 154.755 221.531C154.065 223.937 151.394 225.281 148.789 224.534Z" fill="#231F20"/>
<path fill-rule="evenodd" clip-rule="evenodd" d="M122.983 103.87L157.802 166.91L198.923 125.646L122.983 103.87ZM126.074 106.335L196.038 126.396L158.153 164.413L126.074 106.335Z" fill="#231F20"/>
<path d="M242.78 180.257L226.056 221.282L224.625 220.709L240.74 181.18L202.422 169.117L232.502 137.246L202.668 102.467L203.842 101.519L234.546 137.312L205.185 168.421L242.78 180.257Z" fill="#231F20"/>
<path fill-rule="evenodd" clip-rule="evenodd" d="M149.041 67.6336C151.476 59.1396 160.121 54.1662 168.35 56.5256C176.579 58.8855 181.275 67.6843 178.84 76.1784C176.404 84.6725 167.759 89.6458 159.529 87.286C151.301 84.9266 146.605 76.1277 149.041 67.6336Z" fill="#231F20"/>
</g>
</svg>
